<svg xmlns="http://www.w3.org/2000/svg" width="220" height="230" viewBox="0 0 220 230"><defs><style>.a{fill:#fff;}.b{fill:#43c1b3;}.c,.f{fill:none;stroke-linecap:round;stroke-miterlimit:10;}.c{stroke:#f7ede1;stroke-width:3px;}.d{fill:#6da340;font-size:20px;font-family:RobotoSlab-Regular, Roboto Slab;}.e{fill:#6ba439;}.f{stroke:#fff;stroke-linejoin:round;stroke-width:2px;}</style></defs><g transform="translate(-1007 -868)"><rect class="a" width="220" height="230" transform="translate(1007 868)"/><g transform="translate(111 -21.332)"><g transform="translate(970.162 927.958)"><path class="b" d="M1696.85,257.951v14.892a5.45,5.45,0,0,1-5.451,5.451h-25.946a5.45,5.45,0,0,1-5.45-5.451V257.951a5.451,5.451,0,0,0-5.451-5.451h-6.6a5.451,5.451,0,0,0-5.45,5.451v78.608a8.981,8.981,0,0,0,8.981,8.982h53.89a8.981,8.981,0,0,0,8.982-8.982V257.951a5.451,5.451,0,0,0-5.451-5.451h-6.6A5.451,5.451,0,0,0,1696.85,257.951Z" transform="translate(-1642.5 -252.5)"/><g transform="translate(6.382 66.391)"><line class="c" x2="36.07" transform="translate(0 8.879)"/><line class="c" x2="21.087"/><line class="c" x2="53.827" transform="translate(0 18.312)"/></g></g></g><text class="d" transform="translate(1122 1050)"><tspan x="-44.556" y="0">shopping</tspan><tspan x="-22.056" y="28.8">bags</tspan></text><g transform="translate(873 4)"><circle class="e" cx="18" cy="18" r="18" transform="translate(308 874)"/><path class="f" d="M0,0H18L9,12,0,0Z" transform="translate(317 888)"/></g></g></svg>