<svg xmlns="http://www.w3.org/2000/svg" width="220" height="230" viewBox="0 0 220 230"><defs><style>.a{fill:#fff;}.b{fill:#fc6e6d;}.c,.g{fill:none;stroke:#fff;stroke-linecap:round;stroke-miterlimit:10;}.c{stroke-width:3px;}.d,.e{fill:#6da340;}.e{font-size:20px;font-family:RobotoSlab-Regular, Roboto Slab;}.f{fill:#6ba439;}.g{stroke-linejoin:round;stroke-width:2px;}</style></defs><g transform="translate(-716 -868)"><rect class="a" width="220" height="230" transform="translate(716 868)"/><g transform="translate(-179.42 566.56)"><g transform="translate(976.94 326.9)"><path class="b" d="M541.286,207.658,520.6,265.432a4.6,4.6,0,0,1-4.344,3.4V195.959h.092c7.945,0,17.191.5,20.67,1.881C541.668,199.691,542.525,204.065,541.286,207.658Z" transform="translate(-487.736 -152.605)"/><path class="b" d="M481.38,207.658l20.686,57.774a4.6,4.6,0,0,0,4.344,3.4V195.959h-.092c-7.945,0-17.191.5-20.67,1.881C481,199.691,480.141,204.065,481.38,207.658Z" transform="translate(-477.338 -152.605)"/><line class="c" x2="17.718" transform="translate(29.623 62.622)"/><line class="c" x2="15.141" transform="translate(29.623 70.912)"/><line class="c" x2="12.705" transform="translate(29.623 79.203)"/><g transform="translate(0 0)"><path class="d" d="M516.359,195.116l-.235-.7c1.192-3.336,1.836-3.221,3.769-7.54l.772.458C518.19,191.332,519.039,191.64,516.359,195.116Z" transform="translate(-487.699 -149.27)"/><path class="d" d="M514.679,195.116l.085-.8c-1.5-4.165-1.973-3.127-3.906-7.446l-.772.458C512.561,191.332,512,191.64,514.679,195.116Z" transform="translate(-486.02 -149.27)"/><path class="d" d="M513.6,134.776c7.134,8.46,8.694,17.819,5.648,27.917-.922,3.059-3.085,5.725-4.436,8.682a11.441,11.441,0,0,0-.788,4.393c-.083,2.381-.251,3.64-.274,4.157a.221.221,0,0,1-.237.214c-.17-.016-.17.179-.17-.016a44.79,44.79,0,0,1-.211-4.761,7.987,7.987,0,0,0-1.437-4.858c-7.575-12.115-7.421-22.871.412-34.076A19.828,19.828,0,0,1,513.6,134.776Z" transform="translate(-484.915 -134.776)"/><path class="d" d="M545.915,167.456c-1.8,12.327-10.98,18.033-25.555,15.681,1.142-3.452,1.955-6.951,3.444-10.135a9.41,9.41,0,0,1,8.7-5.518C536.975,167.364,541.448,167.456,545.915,167.456Z" transform="translate(-488.878 -143.859)"/><path class="d" d="M476.743,167.456c1.8,12.327,10.98,18.033,25.555,15.681-1.142-3.452-1.955-6.951-3.444-10.135a9.411,9.411,0,0,0-8.7-5.518C485.683,167.364,481.21,167.456,476.743,167.456Z" transform="translate(-476.743 -143.859)"/></g></g></g><text class="e" transform="translate(800 1050)"><tspan x="0" y="0">foods</tspan></text><g transform="translate(582 4)"><circle class="f" cx="18" cy="18" r="18" transform="translate(308 874)"/><path class="g" d="M0,0H18L9,12,0,0Z" transform="translate(317 888)"/></g></g></svg>