<svg xmlns="http://www.w3.org/2000/svg" width="23.104" height="47.908" viewBox="0 0 23.104 47.908"><defs><style>.a{fill:#fc6e6d;stroke:rgba(0,0,0,0);}.b{fill:none;stroke:#fff;stroke-linecap:round;stroke-miterlimit:10;}.c{fill:#6da340;}</style></defs><path class="a" d="M-2064.073-1486.883v-29.52h.037c3.218,0,6.963.2,8.373.762a3,3,0,0,1,1.728,3.977l-8.378,23.4a1.868,1.868,0,0,1-1.733,1.379Zm-1.76-1.379-8.379-23.4a3,3,0,0,1,1.729-3.977c1.409-.561,5.154-.762,8.373-.762h.037v29.52h-.027A1.868,1.868,0,0,1-2065.834-1488.262Z" transform="translate(2075.626 1534.291)"/><line class="b" x2="7.177" transform="translate(11.999 25.542)"/><line class="b" x2="6.133" transform="translate(11.999 28.923)"/><line class="b" x2="5.146" transform="translate(11.999 32.305)"/><path class="c" d="M516.219,190.212l-.1-.285c.483-1.351.744-1.3,1.527-3.054l.313.185C516.961,188.679,517.3,188.8,516.219,190.212Z" transform="translate(-504.61 -171.641)"/><path class="c" d="M511.947,190.212l.035-.323c-.607-1.687-.8-1.267-1.582-3.016l-.313.185A24.782,24.782,0,0,0,511.947,190.212Z" transform="translate(-500.338 -171.641)"/><path class="c" d="M509.146,134.776a11.413,11.413,0,0,1,2.288,11.308,30.011,30.011,0,0,1-1.8,3.517,4.634,4.634,0,0,0-.319,1.779c-.034.965-.1,1.474-.111,1.684a.09.09,0,0,1-.1.087c-.069-.006-.069.073-.069-.006a18.138,18.138,0,0,1-.085-1.928,3.235,3.235,0,0,0-.582-1.968c-3.068-4.907-3.006-9.264.167-13.8A8.036,8.036,0,0,1,509.146,134.776Z" transform="translate(-497.528 -134.776)"/><path class="c" d="M530.711,167.436c-.73,4.993-4.448,7.3-10.351,6.352a37.275,37.275,0,0,1,1.4-4.105,3.812,3.812,0,0,1,3.525-2.235C527.09,167.4,528.9,167.436,530.711,167.436Z" transform="translate(-507.608 -157.877)"/><path class="c" d="M476.743,167.436c.73,4.993,4.448,7.3,10.351,6.352a37.275,37.275,0,0,0-1.4-4.105,3.812,3.812,0,0,0-3.525-2.235C480.364,167.4,478.552,167.436,476.743,167.436Z" transform="translate(-476.743 -157.877)"/></svg>