<svg xmlns="http://www.w3.org/2000/svg" width="220" height="230" viewBox="0 0 220 230"><defs><style>.a{fill:#fff;}.b,.f{fill:#6da340;}.c,.d{fill:#fc6e6d;}.d,.e{stroke:#fc6e6d;stroke-width:3px;}.d,.e,.h{stroke-linecap:round;}.d{fill-rule:evenodd;}.e,.h{fill:none;}.f{font-size:20px;font-family:RobotoSlab-Regular, Roboto Slab;}.g{fill:#6ba439;}.h{stroke:#fff;stroke-linejoin:round;stroke-miterlimit:10;stroke-width:2px;}</style></defs><g transform="translate(-426 -1468)"><rect class="a" width="220" height="230" transform="translate(426 1468)"/><g transform="translate(-869 666)"><g transform="translate(1377.609 830.625)"><g transform="translate(0 20.527)"><path class="b" d="M459.585-114.305H419.354c-7.292,0-7.906,6.289-7.193,13.545l5.79,58.959a12.7,12.7,0,0,0,12.635,11.455h17.942A12.7,12.7,0,0,0,461.162-41.8l5.791-58.959C467.666-108.016,466.877-114.305,459.585-114.305Z" transform="translate(-411.934 114.305)"/><path class="c" d="M463.832-57.394h-47.8l-2.873-28.53h53.55Z" transform="translate(-412.317 106.77)"/><g transform="translate(19.263 24.157)"><ellipse class="a" cx="8.717" cy="10.729" rx="8.717" ry="10.729"/><path class="d" d="M272.672,208.026a11.922,11.922,0,0,0,0,10.729,11.92,11.92,0,0,1,0,10.729" transform="translate(-264.227 -207.925)"/></g></g><g transform="translate(17.189)"><line class="e" y2="16.653" transform="translate(10.493)"/><line class="e" y2="12.375" transform="translate(20.967 4.278)"/><line class="e" y2="12.375" transform="translate(0 4.278)"/></g></g></g><text class="f" transform="translate(541 1650)"><tspan x="-62.69" y="0">non-reusable</tspan><tspan x="-22.617" y="28.8">cups</tspan></text><g transform="translate(292 604)"><circle class="g" cx="18" cy="18" r="18" transform="translate(308 874)"/><path class="h" d="M0,0H18L9,12,0,0Z" transform="translate(317 888)"/></g></g></svg>