<svg xmlns="http://www.w3.org/2000/svg" width="220" height="230" viewBox="0 0 220 230"><defs><style>.a{fill:#fff;}.b,.f{fill:#6da340;}.c,.d,.h{fill:none;stroke-miterlimit:10;}.c,.d{stroke:#fc6e6d;stroke-width:5px;}.d,.h{stroke-linecap:round;}.d{fill-rule:evenodd;}.e{fill:#f7ede1;}.f{font-size:20px;font-family:RobotoSlab-Regular, Roboto Slab;}.g{fill:#6ba439;}.h{stroke:#fff;stroke-linejoin:round;stroke-width:2px;}</style></defs><g transform="translate(-135 -1168)"><rect class="a" width="220" height="230" transform="translate(135 1168)"/><g transform="translate(-81.5 -0.5)"><g transform="translate(296.498 1207.166)"><g transform="translate(0)"><path class="b" d="M29.79,0h0a29.79,29.79,0,0,1,29.79,29.79V58.8A11.985,11.985,0,0,1,47.594,70.786H11.985A11.985,11.985,0,0,1,0,58.8V29.79A29.79,29.79,0,0,1,29.79,0Z" transform="translate(0 21.564)"/><path class="b" d="M6.167,0h9.512a6.167,6.167,0,0,1,6.167,6.167V9.93a0,0,0,0,1,0,0H0a0,0,0,0,1,0,0V6.167A6.167,6.167,0,0,1,6.167,0Z" transform="translate(18.867 12.131)"/><line class="c" y1="11.88" transform="translate(29.79 0.002)"/><path class="d" d="M498.772,383.471h21.846s7.447-.284,7.447,5.94" transform="translate(-479.905 -383.469)"/><path class="e" d="M509.932,493.081s-.009-6.948-.01-7.8a2.95,2.95,0,0,0-.416-1.855c-.415-.774-4.479-5.925-5.756-7.747a18.849,18.849,0,0,1-3.326-10.091c.033-4.248,1.435-7.212,3.161-11.107,1.395-3.15,4.939-8.026,6.246-9.778a.615.615,0,0,1,.987,0c1.307,1.753,4.851,6.629,6.247,9.778,1.725,3.9,3.127,6.86,3.16,11.107a18.838,18.838,0,0,1-3.326,10.091c-1.276,1.821-5.341,6.972-5.756,7.747a2.946,2.946,0,0,0-.417,1.855c0,.85-.01,7.8-.01,7.8Z" transform="translate(-480.534 -406.688)"/></g></g></g><text class="f" transform="translate(199 1350)"><tspan x="0" y="0">cosmetics</tspan></text><g transform="translate(1 304)"><circle class="g" cx="18" cy="18" r="18" transform="translate(308 874)"/><path class="h" d="M0,0H18L9,12,0,0Z" transform="translate(317 888)"/></g></g></svg>