<svg xmlns="http://www.w3.org/2000/svg" width="220" height="230" viewBox="0 0 220 230"><defs><style>.a{fill:#fff;}.b,.f{fill:#6da340;}.c,.d{fill:#fc6e6d;}.d,.e{stroke:#fc6e6d;}.e,.h{fill:none;stroke-linecap:round;stroke-miterlimit:10;stroke-width:2px;}.f{font-size:20px;font-family:RobotoSlab-Regular, Roboto Slab;}.g{fill:#6ba439;}.h{stroke:#fff;stroke-linejoin:round;}</style></defs><g transform="translate(-716 -1168)"><rect class="a" width="220" height="230" transform="translate(716 1168)"/><g transform="translate(-16 17.598)"><g transform="translate(814.7 1198.195)"><path class="b" d="M0,0H48.608a0,0,0,0,1,0,0V52.667a13,13,0,0,1-13,13H13a13,13,0,0,1-13-13V0A0,0,0,0,1,0,0Z" transform="translate(3.111 11.573)"/><path class="c" d="M11.537,0h32.2A11.537,11.537,0,0,1,55.273,11.537v0a0,0,0,0,1,0,0H0a0,0,0,0,1,0,0v0A11.537,11.537,0,0,1,11.537,0Z" transform="translate(0 0)"/><path class="a" d="M0,0H20.772a13,13,0,0,1,13,13v2.884a13,13,0,0,1-13,13H0a0,0,0,0,1,0,0V0A0,0,0,0,1,0,0Z" transform="translate(6.111 21.975)"/><path class="d" d="M14,5.555H10.887V2.444A.444.444,0,0,0,10.443,2H6a.444.444,0,0,0-.444.444V5.555H2.444A.444.444,0,0,0,2,6v4.444a.444.444,0,0,0,.444.444H5.555V14A.444.444,0,0,0,6,14.442h4.444A.444.444,0,0,0,10.887,14V10.887H14a.444.444,0,0,0,.444-.444V6A.444.444,0,0,0,14,5.555ZM13.554,10H10.443a.444.444,0,0,0-.444.444v3.111H6.444V10.443A.444.444,0,0,0,6,10H2.889V6.444H6A.444.444,0,0,0,6.444,6V2.889H10V6a.444.444,0,0,0,.444.444h3.111Z" transform="translate(8.554 26.196)"/><line class="e" x2="12.311" transform="translate(10.554 44.86)"/></g></g><text class="f" transform="translate(775 1350)"><tspan x="0" y="0">containers</tspan></text><g transform="translate(582 304)"><circle class="g" cx="18" cy="18" r="18" transform="translate(308 874)"/><path class="h" d="M0,0H18L9,12,0,0Z" transform="translate(317 888)"/></g></g></svg>