<svg xmlns="http://www.w3.org/2000/svg" width="220" height="230" viewBox="0 0 220 230"><defs><style>.a{fill:#fff;}.b,.c{fill:#6da340;}.c{font-size:20px;font-family:RobotoSlab-Regular, Roboto Slab;}.d{fill:#6ba439;}.e{fill:none;stroke:#fff;stroke-linecap:round;stroke-linejoin:round;stroke-miterlimit:10;stroke-width:2px;}</style></defs><g transform="translate(-1007 -1468)"><rect class="a" width="220" height="230" transform="translate(1007 1468)"/><g transform="translate(-1064 671)"><path class="b" d="M80.583,75.883H14.123c-3.914,0-6.861-1.714-7.885-4.586-1.031-2.89.184-6.2,3.172-8.643.03-.023.06-.048.092-.07l27.519-19.8A17.7,17.7,0,0,1,45.268,39.4V35.184a1.871,1.871,0,0,1,1.488-1.831C47.179,33.258,51,32.3,51,28.466A4.208,4.208,0,0,0,46.879,24a4.613,4.613,0,0,0-4.689,4.523,1.87,1.87,0,1,1-3.741,0,8.357,8.357,0,0,1,8.429-8.264,7.952,7.952,0,0,1,7.857,8.207,8.636,8.636,0,0,1-5.728,8.085v2.891a16.994,16.994,0,0,1,7.768,3.367L84.27,62.584c3.377,2.591,4.823,6.016,3.819,8.975C87.17,74.266,84.364,75.883,80.583,75.883Zm-68.847-10.3c-1.7,1.406-2.454,3.108-1.973,4.455.469,1.317,2.1,2.1,4.362,2.1H80.583c2.1,0,3.584-.668,3.964-1.787s-.246-3.034-2.508-4.769L54.565,45.827c-5.01-3.742-10.17-3.736-15.361,0h0Z" transform="translate(2135.004 828.332)"/></g><text class="c" transform="translate(1084 1650)"><tspan x="0" y="0">clothes</tspan></text><g transform="translate(873 604)"><circle class="d" cx="18" cy="18" r="18" transform="translate(308 874)"/><path class="e" d="M0,0H18L9,12,0,0Z" transform="translate(317 888)"/></g></g></svg>