<svg xmlns="http://www.w3.org/2000/svg" width="220" height="230" viewBox="0 0 220 230"><defs><style>.a{fill:#fff;stroke:#fc6e6d;}.a,.g{stroke-width:2px;}.b{fill:#fc6e6d;}.c{fill:#43c1b3;}.d,.e,.g,.j{fill:none;}.d,.e{stroke:#f7ede1;stroke-width:3px;}.e,.g{stroke-miterlimit:10;}.f{fill:#6da340;font-size:20px;font-family:RobotoSlab-Regular, Roboto Slab;}.g{stroke:#fff;stroke-linecap:round;stroke-linejoin:round;}.h{fill:rgba(255,255,255,0.5);}.i{stroke:none;}</style></defs><g transform="translate(-135 -868)"><g class="a" transform="translate(135 868)"><rect class="i" width="220" height="230"/><rect class="j" x="1" y="1" width="218" height="228"/></g><g transform="translate(14 25)"><g transform="translate(186.46 895.184)"><g transform="translate(0)"><rect class="b" width="89.283" height="54.288" rx="10" transform="translate(0 8.481)"/><path class="c" d="M1177.324,286.5h17.152a3.822,3.822,0,0,1,3.823,3.824v4.855h-24.8v-4.855A3.823,3.823,0,0,1,1177.324,286.5Z" transform="translate(-1169.664 -286.5)"/><rect class="d" width="20.488" height="10.732" rx="2.438" transform="translate(8.146 15.207)"/></g><circle class="e" cx="15.243" cy="15.243" r="15.243" transform="translate(50.872 20.222)"/><g class="e" transform="translate(53.39 22.837)"><circle class="i" cx="12.683" cy="12.683" r="12.683"/><circle class="j" cx="12.683" cy="12.683" r="11.183"/></g></g></g><text class="f" transform="translate(192 1050)"><tspan x="0" y="0">electronics</tspan></text><g transform="translate(1 4)"><circle class="b" cx="18" cy="18" r="18" transform="translate(308 874)"/><path class="g" d="M0,0H18L9,12,0,0Z" transform="translate(317 888)"/></g><rect class="h" width="220" height="230" transform="translate(135 868)"/></g></svg>