<svg xmlns="http://www.w3.org/2000/svg" width="130.948" height="133.294" viewBox="0 0 130.948 133.294"><defs><style>.a{fill:#fc6e6d;}.b{fill:#43c1b3;}.c,.d,.g{fill:none;}.c,.d{stroke:#f7ede1;stroke-width:3px;}.d{stroke-miterlimit:10;}.e{fill:#6da340;font-size:20px;font-family:RobotoSlab-Regular, Roboto Slab;}.f{stroke:none;}</style></defs><g transform="translate(-214.691 -1224.706)"><g transform="translate(9 305)"><g transform="translate(205.691 919.706)"><g transform="translate(0)"><rect class="a" width="130.948" height="79.622" rx="10" transform="translate(0 12.438)"/><path class="b" d="M1179.108,286.5h25.156a5.606,5.606,0,0,1,5.606,5.608v7.121H1173.5v-7.121A5.607,5.607,0,0,1,1179.108,286.5Z" transform="translate(-1167.873 -286.5)"/><rect class="c" width="30.049" height="15.74" rx="2.438" transform="translate(11.948 22.303)"/></g><ellipse class="d" cx="22.356" cy="22.356" rx="22.356" ry="22.356" transform="translate(74.612 29.659)"/><g class="d" transform="translate(78.306 33.495)"><ellipse class="f" cx="18.602" cy="18.602" rx="18.602" ry="18.602"/><ellipse class="g" cx="18.602" cy="18.602" rx="17.102" ry="17.102"/></g></g></g><text class="e" transform="translate(227 1353)"><tspan x="0" y="0">electronics</tspan></text></g></svg>