<svg xmlns="http://www.w3.org/2000/svg" width="220" height="230" viewBox="0 0 220 230"><defs><style>.a{fill:#fff;}.b{fill:#43c1b3;}.c{fill:#fc6e6d;}.d,.e,.h{fill:none;stroke-linecap:round;stroke-miterlimit:10;}.d{stroke:#43c1b3;}.d,.e{stroke-width:5px;}.e{stroke:#f7ede1;fill-rule:evenodd;}.f{fill:#6da340;font-size:20px;font-family:RobotoSlab-Regular, Roboto Slab;}.g{fill:#6ba439;}.h{stroke:#fff;stroke-linejoin:round;stroke-width:2px;}</style></defs><g transform="translate(-716 -1468)"><rect class="a" width="220" height="230" transform="translate(716 1468)"/><g transform="translate(-82 342)"><g transform="translate(879.664 1171.135)"><g transform="translate(0 0)"><path class="b" d="M1652.067,252.5h-5.24a4.327,4.327,0,0,0-4.327,4.327v62.4a7.13,7.13,0,0,0,7.13,7.13h42.778a7.129,7.129,0,0,0,7.13-7.13v-62.4a4.327,4.327,0,0,0-4.327-4.327h-43.144Z" transform="translate(-1642.5 -252.5)"/><rect class="c" width="46.693" height="19.382" rx="5" transform="translate(5.286 5.286)"/><rect class="c" width="46.693" height="19.382" rx="5" transform="translate(5.286 27.311)"/><rect class="c" width="46.693" height="19.382" rx="5" transform="translate(5.286 49.336)"/><g transform="translate(7.929 76.914)"><line class="d" y1="8.157"/><line class="d" y1="8.157" transform="translate(40.966)"/></g><path class="e" d="M0,0H15.539s5.3-.2,5.3,4.225" transform="translate(39.118 17.221) rotate(180)"/><path class="e" d="M0,0H15.539s5.3-.2,5.3,4.225" transform="translate(39.118 39.246) rotate(180)"/><path class="e" d="M0,0H15.539s5.3-.2,5.3,4.225" transform="translate(39.118 61.271) rotate(180)"/></g></g></g><text class="f" transform="translate(784 1650)"><tspan x="0" y="0">furniture</tspan></text><g transform="translate(582 604)"><circle class="g" cx="18" cy="18" r="18" transform="translate(308 874)"/><path class="h" d="M0,0H18L9,12,0,0Z" transform="translate(317 888)"/></g></g></svg>