<svg xmlns="http://www.w3.org/2000/svg" width="130" height="130" viewBox="0 0 130 130"><defs><style>.a{fill:#43c1b3;}</style></defs><path class="a" d="M32.751,45.654a12.878,12.878,0,1,0-12.894-12.9A12.92,12.92,0,0,0,32.751,45.654Z" transform="translate(32.247 32.245)"/><path class="a" d="M43.315,26.381V13.96l-1.617.005L30.891,14l.042,12.424Z" transform="translate(50.064 22.625)"/><path class="a" d="M65,0a65,65,0,1,0,65,65A65.074,65.074,0,0,0,65,0Zm36.967,57.415V87.682a14.3,14.3,0,0,1-14.288,14.29H42.321a14.3,14.3,0,0,1-14.288-14.29V42.324A14.3,14.3,0,0,1,42.321,28.036H87.676a14.3,14.3,0,0,1,14.29,14.288Z"/><path class="a" d="M63.008,29.448A20.043,20.043,0,1,1,24.4,21.929H13.457v30a7.022,7.022,0,0,0,7.023,7.018H65.44a7.025,7.025,0,0,0,7.023-7.018v-30H61.518A19.769,19.769,0,0,1,63.008,29.448Z" transform="translate(22.036 35.688)"/></svg>