<svg xmlns="http://www.w3.org/2000/svg" width="100" height="100" viewBox="0 0 100 100"><defs><style>.a{fill:#43c1b3;}</style></defs><path class="a" d="M29.451,39.051a9.582,9.582,0,1,0-9.594-9.6A9.613,9.613,0,0,0,29.451,39.051Z" transform="translate(20.548 20.547)"/><path class="a" d="M40.135,23.2V13.96l-1.2,0-8.041.025.031,9.244Z" transform="translate(31.597 14.28)"/><path class="a" d="M50,0a50,50,0,1,0,50,50A50.057,50.057,0,0,0,50,0ZM78.436,44.165V67.447A11,11,0,0,1,67.445,78.44H32.555a11,11,0,0,1-10.99-10.993V32.557a11,11,0,0,1,10.99-10.99H67.443a11,11,0,0,1,10.993,10.99Z"/><path class="a" d="M50.325,27.523A14.913,14.913,0,1,1,21.6,21.929h-8.14V44.252a5.225,5.225,0,0,0,5.226,5.222H52.135a5.227,5.227,0,0,0,5.226-5.222V21.929H49.217A14.709,14.709,0,0,1,50.325,27.523Z" transform="translate(14.588 22.969)"/></svg>