<svg xmlns="http://www.w3.org/2000/svg" width="220" height="230" viewBox="0 0 220 230"><defs><style>.a{fill:#fff;}.b,.e,.h{fill:none;stroke-linecap:round;}.b{stroke:#43c1b3;stroke-width:5px;}.c{fill:#43c1b3;}.d{fill:#fc6e6d;}.e,.h{stroke:#fff;}.e{stroke-width:3px;fill-rule:evenodd;}.f{fill:#6da340;font-size:20px;font-family:RobotoSlab-Regular, Roboto Slab;}.g{fill:#6ba439;}.h{stroke-linejoin:round;stroke-miterlimit:10;stroke-width:2px;}</style></defs><g transform="translate(-135 -1468)"><rect class="a" width="220" height="230" transform="translate(135 1468)"/><g transform="translate(-772 666)"><g transform="translate(989.885 833.331)"><line class="b" x1="9.561" y1="23.525" transform="translate(7.383 5.621)"/><path class="c" d="M390.205,754.733h-43.1l-5.8,10.893v58.491a6.5,6.5,0,0,0,6.5,6.5h41.7a6.5,6.5,0,0,0,6.5-6.5V765.626Z" transform="translate(-341.306 -727.802)"/><rect class="d" width="54.703" height="58.491" transform="translate(0 37.617)"/><g transform="translate(14.767 44.727)"><path class="e" d="M373.543,783.622s-12.253,10.61,0,22.142,0,22.142,0,22.142" transform="translate(-368.097 -783.622)"/><path class="e" d="M400.064,783.622s-12.253,10.61,0,22.142,0,22.142,0,22.142" transform="translate(-380.113 -783.622)"/></g><ellipse class="d" cx="3.737" cy="3.737" rx="3.737" ry="3.737" transform="translate(19.621 13.568)"/><ellipse class="d" cx="3.737" cy="3.737" rx="3.737" ry="3.737" transform="translate(15.885 3.737)"/><ellipse class="d" cx="3.737" cy="3.737" rx="3.737" ry="3.737" transform="translate(25.543)"/></g></g><text class="f" transform="translate(188 1650)"><tspan x="0" y="0">metal waste</tspan></text><g transform="translate(1 604)"><circle class="g" cx="18" cy="18" r="18" transform="translate(308 874)"/><path class="h" d="M0,0H18L9,12,0,0Z" transform="translate(317 888)"/></g></g></svg>