<svg xmlns="http://www.w3.org/2000/svg" width="220" height="230" viewBox="0 0 220 230"><defs><style>.a{fill:#fff;}.b{fill:#fc6e6d;}.c,.e{fill:#6da340;}.d,.g{fill:none;stroke:#fff;stroke-linecap:round;stroke-miterlimit:10;}.d{stroke-width:3px;}.e{font-size:20px;font-family:RobotoSlab-Regular, Roboto Slab;}.f{fill:#6ba439;}.g{stroke-linejoin:round;stroke-width:2px;}</style></defs><g transform="translate(-426 -868)"><rect class="a" width="220" height="230" transform="translate(426 868)"/><g transform="translate(-77.421 566.561)"><rect class="b" width="17.936" height="17.277" rx="3.063" transform="translate(607.941 321.978)"/><path class="c" d="M21.55,0h0A21.55,21.55,0,0,1,43.1,21.55v86.62a8.67,8.67,0,0,1-8.67,8.67H8.67A8.67,8.67,0,0,1,0,108.17V21.55A21.55,21.55,0,0,1,21.55,0Z" transform="translate(595.655 334.085)"/><line class="d" x2="30.122" transform="translate(599.91 372.511)"/><line class="d" x2="30.122" transform="translate(599.91 396.127)"/><line class="d" x2="23.981" transform="translate(599.967 385.143)"/></g><text class="e" transform="translate(503 1050)"><tspan x="0" y="0">plastics</tspan></text><g transform="translate(292 4)"><circle class="f" cx="18" cy="18" r="18" transform="translate(308 874)"/><path class="g" d="M0,0H18L9,12,0,0Z" transform="translate(317 888)"/></g></g></svg>