<svg xmlns="http://www.w3.org/2000/svg" width="220" height="230" viewBox="0 0 220 230"><defs><style>.a{fill:#fff;}.b{fill:#fc6e6d;}.c,.f{fill:none;stroke-linecap:round;stroke-miterlimit:10;}.c{stroke:#f7ede1;stroke-width:3px;}.d{fill:#6da340;font-size:20px;font-family:RobotoSlab-Regular, Roboto Slab;}.e{fill:#6ba439;}.f{stroke:#fff;stroke-linejoin:round;stroke-width:2px;}</style></defs><g transform="translate(-1007 -1168)"><rect class="a" width="220" height="230" transform="translate(1007 1168)"/><g transform="translate(34 -53)"><g transform="translate(1047.208 1259.686)"><path class="b" d="M1654.536,252.5h-6.593a5.444,5.444,0,0,0-5.444,5.444v78.507a8.97,8.97,0,0,0,8.97,8.97h53.82a8.97,8.97,0,0,0,8.97-8.97V257.944a5.444,5.444,0,0,0-5.444-5.444h-54.28Z" transform="translate(-1642.5 -252.5)"/><line class="c" y1="0.078" x2="45.999" transform="translate(12.747 14.132)"/><line class="c" x2="45.999" transform="translate(12.747 21.891)"/><line class="c" x2="45.999" transform="translate(12.747 37.963)"/><line class="c" x2="45.999" transform="translate(12.747 46.276)"/><line class="c" x2="45.999" transform="translate(12.747 54.035)"/><line class="c" x2="26.048" transform="translate(12.747 61.794)"/><line class="c" x2="45.999" transform="translate(12.747 30.204)"/></g></g><text class="d" transform="translate(1090 1350)"><tspan x="0" y="0">papers</tspan></text><g transform="translate(873 304)"><circle class="e" cx="18" cy="18" r="18" transform="translate(308 874)"/><path class="f" d="M0,0H18L9,12,0,0Z" transform="translate(317 888)"/></g></g></svg>