<svg xmlns="http://www.w3.org/2000/svg" width="50" height="50" viewBox="0 0 50 50"><defs><style>.a{fill:#b5dcdd;}.b{fill:none;stroke:#fff;stroke-linecap:round;stroke-linejoin:round;stroke-miterlimit:10;stroke-width:2px;}</style></defs><g transform="translate(-1161 -1284)"><path class="a" d="M25,0A25,25,0,1,1,0,25,25,25,0,0,1,25,0Z" transform="translate(1161 1284)"/><g transform="translate(775.5 943.119)"><path class="b" d="M5.912,10.642H0L6.686,0" transform="translate(399.5 362.832)"/><path class="b" d="M9.884,0l3.123,5H0" transform="translate(409.493 368.432)"/><path class="b" d="M0,4.717,2.948,0,9.307,10.214" transform="translate(407.975 354.881)"/><path class="b" d="M0,1.182,4.73,0,5.912,4.73" transform="translate(401.456 362.941)"/><path class="b" d="M5.825,0,4.757,4.757,0,3.689" transform="translate(412.437 360.194)"/><path class="b" d="M3.547,7.095,0,3.547,3.547,0" transform="translate(409.798 369.786)"/></g></g></svg>