<svg xmlns="http://www.w3.org/2000/svg" width="220" height="230" viewBox="0 0 220 230"><defs><style>.a{fill:#fff;}.b,.c,.f{fill:none;stroke-linecap:round;}.b{stroke:#fc6e6d;stroke-width:14px;}.c{stroke:#f7ede1;stroke-width:3px;}.d{fill:#6da340;font-size:20px;font-family:RobotoSlab-Regular, Roboto Slab;}.e{fill:#6ba439;}.f{stroke:#fff;stroke-linejoin:round;stroke-miterlimit:10;stroke-width:2px;}</style></defs><g transform="translate(-426 -1168)"><rect class="a" width="220" height="230" transform="translate(426 1168)"/><g transform="translate(-1633.422 866.561)"><g transform="translate(2145.471 327.717)"><path class="b" d="M33.117,0S7.514,18.827.233,36.778c-2.426,9.42,14.853,77.062,14.853,77.062" transform="translate(0 5.181) rotate(-9)"/><path class="c" d="M17218.92,626.85h4.846" transform="translate(-17215.285 -585.796)"/><path class="c" d="M17218.92,626.85h4.846" transform="translate(-17214.736 -581.4)"/><path class="c" d="M17218.92,626.85h4.846" transform="translate(-17213.641 -577.004)"/></g></g><text class="d" transform="translate(509 1350)"><tspan x="0" y="0">straws</tspan></text><g transform="translate(292 304)"><circle class="e" cx="18" cy="18" r="18" transform="translate(308 874)"/><path class="f" d="M0,0H18L9,12,0,0Z" transform="translate(317 888)"/></g></g></svg>