<svg xmlns="http://www.w3.org/2000/svg" width="89.739" height="150.11" viewBox="0 0 89.739 150.11"><defs><style>.a,.e,.f{fill:none;}.a{stroke:#64942f;stroke-width:4px;}.a,.d,.e,.f{stroke-miterlimit:10;}.b{fill:#43c1b3;}.c,.d{fill:#64942f;}.d,.e,.f{stroke:#f6e8d9;stroke-linecap:round;}.d,.e{stroke-width:0.998px;}.f{stroke-width:0.725px;}</style></defs><g transform="translate(0)"><path class="a" d="M225.047,179.8s-26.765,9.751-18.415,21.852,21.554,26.224,2.6,45.725" transform="translate(-161.765 -160.383)"/><path class="b" d="M152,255.374v44.9c0,13.332,9.477,24.14,21.165,24.14H220.57c11.688,0,21.17-10.808,21.17-24.14v-44.9Z" transform="translate(-152 -174.303)"/><g transform="translate(10.957 13.389)"><path class="c" d="M200.382,202.791s-25.428,11.526-34.951-30.379C165.428,172.412,202.977,178.878,200.382,202.791Z" transform="translate(-165.431 -172.412)"/><path class="d" d="M198.974,201.739s-2.964-1.891-7.23-4.967c-6.884-4.963-17.159-13.01-23.847-21.174" transform="translate(-165.885 -172.999)"/><line class="e" x1="3.215" y1="11.647" transform="translate(16.231 7.306)"/><line class="e" x2="1.503" y2="10.644" transform="translate(24.356 13.129)"/><line class="e" x2="11.416" transform="translate(10.363 20.754)"/></g><g transform="translate(57.661 0)"><path class="c" d="M223.135,178.14s-5.973-19.26,25.3-22.14C248.43,156,240.225,182.239,223.135,178.14Z" transform="translate(-222.679 -156)"/><path class="f" d="M224.911,177.236s1.647-1.942,4.277-4.708c4.243-4.456,11.04-11.047,17.585-15.063" transform="translate(-223.09 -156.27)"/><line class="f" y1="1.206" x2="8.744" transform="translate(10.192 10.922)"/><line class="f" x1="7.856" y2="0.077" transform="translate(6.097 16.184)"/><line class="f" x1="1.07" y2="8.161" transform="translate(8.668 5.466)"/></g></g></svg>