<svg xmlns="http://www.w3.org/2000/svg" width="100" height="100" viewBox="0 0 100 100"><defs><style>.a{fill:#fc6e6d;}</style></defs><path class="a" d="M50,0a50,50,0,1,0,50,50A50.057,50.057,0,0,0,50,0ZM72.305,38.556c.022.5.034.995.034,1.494,0,15.208-11.573,32.738-32.746,32.738a32.552,32.552,0,0,1-17.641-5.166,23.238,23.238,0,0,0,17.039-4.765,11.52,11.52,0,0,1-10.751-7.994,11.553,11.553,0,0,0,5.2-.193,11.51,11.51,0,0,1-9.23-11.285c0-.048,0-.1,0-.145a11.461,11.461,0,0,0,5.21,1.438,11.526,11.526,0,0,1-3.561-15.365A32.677,32.677,0,0,0,49.577,41.342a11.516,11.516,0,0,1,19.61-10.5A22.971,22.971,0,0,0,76.5,28.049a11.56,11.56,0,0,1-5.067,6.368,22.88,22.88,0,0,0,6.61-1.811A23.149,23.149,0,0,1,72.305,38.556Z"/></svg>