<svg xmlns="http://www.w3.org/2000/svg" width="130" height="130" viewBox="0 0 130 130"><defs><style>.a{fill:#fc6e6d;}</style></defs><path class="a" d="M65,0a65,65,0,1,0,65,65A65.074,65.074,0,0,0,65,0ZM94,50.123c.029.644.045,1.293.045,1.943,0,19.77-15.044,42.559-42.57,42.559a42.317,42.317,0,0,1-22.933-6.716,30.209,30.209,0,0,0,22.15-6.195A14.976,14.976,0,0,1,36.713,71.323a15.018,15.018,0,0,0,6.755-.251,14.963,14.963,0,0,1-12-14.67c0-.063,0-.128,0-.189a14.9,14.9,0,0,0,6.773,1.869,14.984,14.984,0,0,1-4.629-19.974A42.48,42.48,0,0,0,64.45,53.744,14.971,14.971,0,0,1,89.944,40.1a29.862,29.862,0,0,0,9.5-3.631,15.028,15.028,0,0,1-6.587,8.279,29.744,29.744,0,0,0,8.593-2.354A30.094,30.094,0,0,1,94,50.123Z"/></svg>