<svg xmlns="http://www.w3.org/2000/svg" xmlns:xlink="http://www.w3.org/1999/xlink" width="1366" height="658" viewBox="0 0 1366 658"><defs><style>.a{fill:#fff;}.b{clip-path:url(#a);}.c{fill:#fc6e6d;}.d,.g,.h,.i{fill:none;stroke-linecap:round;}.d,.i{stroke:#fff;}.d,.g{stroke-miterlimit:10;}.d,.g,.i{stroke-width:3px;}.e{fill:#6da340;}.f{fill:#43c1b3;}.g{stroke:#f7ede1;}.h{stroke:#43c1b3;stroke-width:5px;}.i{fill-rule:evenodd;}</style><clipPath id="a"><path class="a" d="M0,0H1366V658H0Z"/></clipPath></defs><g class="b"><path class="a" d="M0,0H1366V657H0Z" transform="translate(0 1)"/><g transform="translate(339.964 -320.678) rotate(21)"><g transform="translate(976.94 326.9)"><path class="c" d="M599.072,234.67,530.63,425.834C528,433.451,522.1,437.2,516.257,437.095V195.959h.3c26.29,0,56.881,1.643,68.392,6.224C600.338,208.306,603.173,222.779,599.072,234.67Z" transform="translate(-421.887 -52.507)"/><path class="c" d="M482.561,234.67l68.445,191.164c2.632,7.616,8.529,11.361,14.372,11.261V195.959h-.3c-26.29,0-56.881,1.643-68.395,6.224C481.3,208.306,478.463,222.779,482.561,234.67Z" transform="translate(-469.189 -52.507)"/><line class="d" x2="58.627" transform="translate(98.018 207.206)"/><line class="d" x2="50.097" transform="translate(98.018 234.637)"/><line class="d" x2="42.038" transform="translate(98.018 262.07)"/><g transform="translate(0 0)"><path class="e" d="M516.9,214.149l-.776-2.329c3.943-11.039,6.076-10.659,12.471-24.948l2.553,1.514C522.962,201.628,525.77,202.648,516.9,214.149Z" transform="translate(-422.072 -62.452)"/><path class="e" d="M525.281,214.149l.282-2.639c-4.96-13.783-6.527-10.348-12.923-24.637l-2.553,1.514C518.272,201.628,516.411,202.648,525.281,214.149Z" transform="translate(-430.453 -62.452)"/><path class="e" d="M530.865,134.776c23.605,27.993,28.766,58.959,18.688,92.373-3.052,10.122-10.207,18.944-14.678,28.728-2.051,4.488-2.434,9.532-2.608,14.535-.275,7.879-.831,12.044-.908,13.754a.732.732,0,0,1-.783.709c-.564-.053-.564.592-.564-.053a148.17,148.17,0,0,1-.7-15.753c.239-6.109-1.44-10.773-4.755-16.073C499.5,212.911,500,177.321,525.924,140.245A65.6,65.6,0,0,1,530.865,134.776Z" transform="translate(-435.966 -134.776)"/><path class="e" d="M604.916,167.534c-5.963,40.789-36.33,59.669-84.556,51.885,3.778-11.423,6.47-23,11.4-33.534,5.414-11.581,15.786-17.907,28.8-18.258C575.335,167.228,590.135,167.534,604.916,167.534Z" transform="translate(-416.192 -89.455)"/><path class="e" d="M476.743,167.534c5.963,40.789,36.33,59.669,84.556,51.885-3.778-11.423-6.47-23-11.4-33.534-5.417-11.581-15.786-17.907-28.8-18.258C506.324,167.228,491.524,167.534,476.743,167.534Z" transform="translate(-476.743 -89.455)"/></g></g></g><g transform="translate(-356.002 668.655) rotate(-56)"><g transform="translate(970.162 927.958)"><path class="f" d="M1742.709,262.55v27.457a10.049,10.049,0,0,1-10.05,10.05H1684.82a10.049,10.049,0,0,1-10.049-10.05V262.55a10.05,10.05,0,0,0-10.05-10.05H1652.55a10.05,10.05,0,0,0-10.05,10.05V407.484a16.559,16.559,0,0,0,16.56,16.56h99.36a16.56,16.56,0,0,0,16.56-16.56V262.55a10.05,10.05,0,0,0-10.05-10.05h-12.171A10.05,10.05,0,0,0,1742.709,262.55Z" transform="translate(-1642.5 -252.5)"/><g transform="translate(11.766 122.409)"><line class="g" x2="66.504" transform="translate(0 16.37)"/><line class="g" x2="38.879"/><line class="g" x2="99.244" transform="translate(0 33.764)"/></g></g></g><g transform="translate(465.152 140.52) rotate(-31)"><rect class="c" width="17.444" height="16.803" rx="3.063" transform="translate(607.604 321.978)"/><path class="e" d="M20.959,0h0A20.959,20.959,0,0,1,41.917,20.959V105.2a8.432,8.432,0,0,1-8.432,8.432H8.432A8.432,8.432,0,0,1,0,105.2V20.959A20.959,20.959,0,0,1,20.959,0Z" transform="translate(595.655 333.753)"/><line class="d" x2="29.295" transform="translate(599.794 371.124)"/><line class="d" x2="29.295" transform="translate(599.794 394.092)"/><line class="d" x2="23.323" transform="translate(599.849 383.409)"/></g><g transform="translate(408.16 -888.724) rotate(16)"><g transform="translate(989.885 833.331)"><line class="h" x1="10.457" y1="25.73" transform="translate(8.076 6.148)"/><path class="f" d="M394.789,754.733H347.654l-6.348,11.914v63.974a7.111,7.111,0,0,0,7.111,7.11h45.609a7.11,7.11,0,0,0,7.11-7.11V766.647Z" transform="translate(-341.306 -725.277)"/><rect class="c" width="59.83" height="63.974" transform="translate(0 41.143)"/><g transform="translate(16.152 48.92)"><path class="i" d="M374.053,783.622s-13.4,11.6,0,24.218,0,24.217,0,24.217" transform="translate(-368.097 -783.622)"/><path class="i" d="M400.574,783.622s-13.4,11.6,0,24.218,0,24.217,0,24.217" transform="translate(-378.753 -783.622)"/></g><ellipse class="c" cx="4.087" cy="4.087" rx="4.087" ry="4.087" transform="translate(21.461 14.84)"/><ellipse class="c" cx="4.087" cy="4.087" rx="4.087" ry="4.087" transform="translate(17.374 4.087)"/><ellipse class="c" cx="4.087" cy="4.087" rx="4.087" ry="4.087" transform="translate(27.937)"/></g></g></g></svg>