<svg xmlns="http://www.w3.org/2000/svg" width="30" height="30" viewBox="0 0 30 30"><defs><style>.a{fill:#43c1b3;}</style></defs><path class="a" d="M22.56,25.264a2.7,2.7,0,1,0-2.7-2.7A2.708,2.708,0,0,0,22.56,25.264Z" transform="translate(-7.56 -7.56)"/><path class="a" d="M33.5,16.564v-2.6h-.339l-2.265.007.009,2.6Z" transform="translate(-12.028 -5.435)"/><path class="a" d="M15,0A15,15,0,1,0,30,15,15.017,15.017,0,0,0,15,0Zm8.531,13.25v6.985a3.3,3.3,0,0,1-3.3,3.3H9.766a3.3,3.3,0,0,1-3.3-3.3V9.767a3.3,3.3,0,0,1,3.3-3.3H20.233a3.3,3.3,0,0,1,3.3,3.3Z"/><path class="a" d="M23.844,23.505a4.2,4.2,0,1,1-8.094-1.576H13.457v6.289a1.472,1.472,0,0,0,1.472,1.471h9.425a1.473,1.473,0,0,0,1.472-1.471V21.929H23.532A4.144,4.144,0,0,1,23.844,23.505Z" transform="translate(-4.643 -8.148)"/></svg>