<svg xmlns="http://www.w3.org/2000/svg" width="197.697" height="71.278" viewBox="0 0 197.697 71.278"><defs><style>.a{fill:#1a1818;}.b{fill:#fff;}</style></defs><g transform="translate(-161.484 -242.805)"><ellipse class="a" cx="21.223" cy="21.223" rx="21.223" ry="21.223" transform="translate(161.484 255.459) rotate(-5.655)"/><path class="a" d="M420.858,274.968a.977.977,0,0,0-.771-.337,1.06,1.06,0,0,0-.561.154,1.049,1.049,0,0,0-.393.435q-.364.757-1.023,2.005a20.839,20.839,0,0,1-1.528,2.453,11.766,11.766,0,0,1-1.907,2.089,3.3,3.3,0,0,1-2.159.883,3.356,3.356,0,0,1-2.833-2.033,18.446,18.446,0,0,1-1.878-5.594q1.57-2.86,2.944-5.874a61.364,61.364,0,0,0,2.383-6.043,48.991,48.991,0,0,0,1.6-6.015,29.912,29.912,0,0,0,.589-5.79,22.3,22.3,0,0,0-.28-3.842,9.2,9.2,0,0,0-.785-2.552,3.357,3.357,0,0,0-1.248-1.416,3.245,3.245,0,0,0-1.669-.434,2.858,2.858,0,0,0-2.1.953,8.687,8.687,0,0,0-1.64,2.579,22.517,22.517,0,0,0-1.234,3.786q-.519,2.159-.855,4.57t-.491,4.935q-.155,2.524-.154,4.879,0,1.626.1,3.729t.378,4.332c.068.541.15,1.077.239,1.611a.987.987,0,0,0-.62.533q-.364.757-1.023,2.005a20.765,20.765,0,0,1-1.528,2.453,11.781,11.781,0,0,1-1.906,2.089,3.3,3.3,0,0,1-2.159.884,3.356,3.356,0,0,1-2.833-2.033,18.447,18.447,0,0,1-1.879-5.594q1.57-2.861,2.944-5.875a61.43,61.43,0,0,0,2.384-6.043,48.994,48.994,0,0,0,1.6-6.015,29.906,29.906,0,0,0,.589-5.79,22.312,22.312,0,0,0-.28-3.842,9.178,9.178,0,0,0-.785-2.551,3.355,3.355,0,0,0-1.248-1.416,3.245,3.245,0,0,0-1.669-.434,2.86,2.86,0,0,0-2.1.953,8.7,8.7,0,0,0-1.64,2.579,22.557,22.557,0,0,0-1.234,3.786q-.519,2.159-.855,4.571t-.491,4.935q-.155,2.523-.154,4.879,0,1.627.1,3.729t.378,4.332c.081.642.179,1.278.289,1.91a1.006,1.006,0,0,0-.121.053,1.041,1.041,0,0,0-.393.434,35.858,35.858,0,0,1-1.767,3.155,19.738,19.738,0,0,1-1.781,2.426,8.956,8.956,0,0,1-1.725,1.57,2.943,2.943,0,0,1-1.626.561,3.217,3.217,0,0,1-1-.169,2.317,2.317,0,0,1-.982-.673,3.812,3.812,0,0,1-.757-1.416,8,8,0,0,1-.294-2.4q0-1.095.07-2.4t.169-2.467q.1-1.164.168-2.005c.046-.561.071-.9.071-1.01a1.1,1.1,0,0,0-.28-.742.893.893,0,0,0-.7-.322,1.044,1.044,0,0,0-.771.294,1.187,1.187,0,0,0-.35.687q-.308,2.412-.421,4.767a.269.269,0,0,0-.07.1.856.856,0,0,1-.042.1,17.427,17.427,0,0,1-1.5,2.65,18.7,18.7,0,0,1-2.271,2.72,23.588,23.588,0,0,1-3.029,2.538,21.863,21.863,0,0,1-3.771,2.131q0-.9.014-2.117t.014-2.552v-5.145q1.542-2.776,2.9-5.636a53,53,0,0,0,2.369-5.86,45.01,45.01,0,0,0,1.6-6.2,36.46,36.46,0,0,0,.589-6.617,20.828,20.828,0,0,0-.224-3.113,9.781,9.781,0,0,0-.729-2.594,4.772,4.772,0,0,0-1.318-1.766,3.06,3.06,0,0,0-1.991-.659,2.907,2.907,0,0,0-2.453,1.359,10.88,10.88,0,0,0-1.528,3.968,45.307,45.307,0,0,0-.813,6.393q-.252,3.784-.337,8.608-.056,2.524-.084,5.342t-.056,5.734c0,.185,0,.367,0,.551a1.161,1.161,0,0,0-.164.262q-.308.73-.939,1.907a18.032,18.032,0,0,1-1.486,2.314,11.344,11.344,0,0,1-1.865,1.962,3.246,3.246,0,0,1-2.074.827,1.575,1.575,0,0,1-.954-.267,1.693,1.693,0,0,1-.561-.729,3.864,3.864,0,0,1-.267-1.079,11.437,11.437,0,0,1-.07-1.29c0-.355.013-.733.042-1.136s.055-.8.083-1.192.056-.761.084-1.108.042-.64.042-.883a4.7,4.7,0,0,0-.7-2.636,2.406,2.406,0,0,0-2.159-1.065,3.366,3.366,0,0,0-1.556.435,5.573,5.573,0,0,0-1.641,1.416q-.814,1.009-1.556,2.131t-1.417,2.257q-.673,1.136-1.261,2.243t-1.037,2.032q.084-.812.182-2.019t.21-2.425q.113-1.22.182-2.285t.071-1.571a6.84,6.84,0,0,0-.126-1.318,4.6,4.6,0,0,0-.393-1.178,2.3,2.3,0,0,0-.715-.855,1.828,1.828,0,0,0-1.093-.322,2.986,2.986,0,0,0-2.2,1.416,20.129,20.129,0,0,0-2.369,4.417c-.01.027-.015.053-.023.08q-.57,1.264-1.267,2.528a13.815,13.815,0,0,1-1.654,2.384,8.244,8.244,0,0,1-2.047,1.725,5.254,5.254,0,0,1-4.767.168,4.358,4.358,0,0,1-1.514-1.3,11.979,11.979,0,0,0,2.047-1.262,9.169,9.169,0,0,0,1.64-1.6,7.258,7.258,0,0,0,1.08-1.878,5.908,5.908,0,0,0,.393-2.159,3.939,3.939,0,0,0-.308-1.6,3.753,3.753,0,0,0-.814-1.192,3.663,3.663,0,0,0-1.135-.757,3.26,3.26,0,0,0-1.276-.267,4.067,4.067,0,0,0-2,.505,4.856,4.856,0,0,0-1.57,1.4,6.653,6.653,0,0,0-1.01,2.1c-.073.25-.13.509-.18.774a1.068,1.068,0,0,0-.226.32q-.589,1.318-1.318,2.636a13.817,13.817,0,0,1-1.654,2.384,8.245,8.245,0,0,1-2.047,1.725,5.254,5.254,0,0,1-4.767.168,4.358,4.358,0,0,1-1.514-1.3,11.979,11.979,0,0,0,2.047-1.262,9.186,9.186,0,0,0,1.641-1.6,7.27,7.27,0,0,0,1.079-1.878,5.908,5.908,0,0,0,.393-2.159,3.939,3.939,0,0,0-.308-1.6,3.753,3.753,0,0,0-.814-1.192,3.663,3.663,0,0,0-1.135-.757,3.26,3.26,0,0,0-1.276-.267,4.066,4.066,0,0,0-2,.505,4.856,4.856,0,0,0-1.57,1.4,6.652,6.652,0,0,0-1.01,2.1,8.135,8.135,0,0,0-.183.793,1,1,0,0,0-.2.245q-.477.925-1.191,2.159a18.231,18.231,0,0,1-1.612,2.341,10.694,10.694,0,0,1-1.963,1.892,3.761,3.761,0,0,1-2.271.786,2.826,2.826,0,0,1-.869-.154,2.382,2.382,0,0,1-.9-.546,3.031,3.031,0,0,1-.7-1.052,4.285,4.285,0,0,1-.28-1.668,12.523,12.523,0,0,1,.084-1.43q.084-.729.2-1.473t.2-1.444a11.339,11.339,0,0,0,.084-1.346,2.836,2.836,0,0,0-.841-2.3,3.725,3.725,0,0,0-2.44-.7q-.421,0-.883.014t-.939.014a10.5,10.5,0,0,0-.1-1.318,7.991,7.991,0,0,0-.322-1.444,3.411,3.411,0,0,0-.631-1.164,1.319,1.319,0,0,0-1.051-.477,1.6,1.6,0,0,0-1.122.575,6.69,6.69,0,0,0-1.01,1.359,8.7,8.7,0,0,0-.715,1.6,4.445,4.445,0,0,0-.267,1.29,1.5,1.5,0,0,0,1,1.542,3.026,3.026,0,0,0,.939.2q.5.028.982.028-.252,1.233-.42,1.823c-.087.306-.164.542-.228.712a1.213,1.213,0,0,0-.164.269,62.052,62.052,0,0,1-7.319,11.413q.028-2.019.07-3.828t.071-3.182q.027-1.373.056-2.2t.028-.855a1.187,1.187,0,0,0-.267-.757.894.894,0,0,0-.743-.337,1.078,1.078,0,0,0-.729.267,1.039,1.039,0,0,0-.365.659,9.533,9.533,0,0,1-.659,2.523,6.662,6.662,0,0,1-1.08,1.766,4.384,4.384,0,0,1-1.276,1.037,2.751,2.751,0,0,1-1.248.337,2.085,2.085,0,0,1-1.823-.827,3.666,3.666,0,0,1-.589-2.173,7.29,7.29,0,0,1,.589-3.071,6.608,6.608,0,0,1,1.458-2.089,5.64,5.64,0,0,1,1.878-1.191,5.306,5.306,0,0,1,1.851-.379,3.7,3.7,0,0,1,.967.112,3.037,3.037,0,0,1,.7.28,3.242,3.242,0,0,1,.477.322q.182.155.295.238a1.158,1.158,0,0,0,.757.309.976.976,0,0,0,.729-.322,1.043,1.043,0,0,0,.308-.743,1.091,1.091,0,0,0-.308-.757c-.019-.018-.122-.112-.308-.28a4.218,4.218,0,0,0-.8-.533,7,7,0,0,0-1.248-.5,5.423,5.423,0,0,0-1.6-.224,7.137,7.137,0,0,0-2.678.561,7.805,7.805,0,0,0-2.537,1.683,8.9,8.9,0,0,0-1.893,2.79,9.393,9.393,0,0,0-.743,3.856,6.348,6.348,0,0,0,.308,2.019,5.033,5.033,0,0,0,.869,1.612,3.866,3.866,0,0,0,1.36,1.066,4.106,4.106,0,0,0,1.78.379,4.907,4.907,0,0,0,2.314-.617,6.277,6.277,0,0,0,2-1.682q-.057,1.627-.07,3.561t-.042,3.9a23.145,23.145,0,0,0-2.173,2.8,34.042,34.042,0,0,0-1.893,3.225q-.87,1.682-1.584,3.463t-1.22,3.519a28.53,28.53,0,0,0-.771,3.379,19.053,19.053,0,0,0-.266,3.042,6.988,6.988,0,0,0,1.01,4.066,3.322,3.322,0,0,0,2.888,1.43,3.962,3.962,0,0,0,2.285-.659,5.6,5.6,0,0,0,1.654-1.823,11.272,11.272,0,0,0,1.122-2.748,26.581,26.581,0,0,0,.687-3.449q.252-1.865.35-3.926t.1-4.164q0-2.1-.028-3.87t-.028-3.532q3.477-4.348,5.749-7.8a43.45,43.45,0,0,0,3.5-6.251v0a1.908,1.908,0,0,0,.14-.337q.111-.308.266-.8t.323-1.15a14.255,14.255,0,0,0,.28-1.415q.532-.028,1-.028h.855a1.453,1.453,0,0,1,1.052.267,1.169,1.169,0,0,1,.238.8,13.423,13.423,0,0,1-.28,2.65,14.028,14.028,0,0,0-.281,2.79,6.717,6.717,0,0,0,.393,2.369,5.314,5.314,0,0,0,1.051,1.767,4.438,4.438,0,0,0,1.556,1.093,4.853,4.853,0,0,0,1.906.378,5.436,5.436,0,0,0,2.987-.869,11.256,11.256,0,0,0,2.454-2.131,18.544,18.544,0,0,0,1.842-2.536c.051.229.109.457.176.685a7.8,7.8,0,0,0,1.29,2.566,6.536,6.536,0,0,0,5.412,2.566,7.563,7.563,0,0,0,5.173-2.215,16.087,16.087,0,0,0,2.659-3.423c.041.169.081.338.131.508a7.8,7.8,0,0,0,1.29,2.566,6.536,6.536,0,0,0,5.412,2.566,7.563,7.563,0,0,0,5.173-2.215,20.28,20.28,0,0,0,4.191-6.359c.017-.032.042-.056.057-.09a21.909,21.909,0,0,1,1.654-3.407q.645-.967.9-1.052a1.291,1.291,0,0,1,.224.785q.056.646.056,1.346,0,.534-.056,1.318t-.14,1.7q-.084.911-.168,1.836t-.168,1.725q-.084.8-.14,1.374t-.056.771a1.876,1.876,0,0,0,.491,1.388,1.763,1.763,0,0,0,1.3.491,1.945,1.945,0,0,0,1.15-.406,4.2,4.2,0,0,0,1.121-1.584q.279-.616.771-1.556t1.066-1.977q.573-1.037,1.233-2.089t1.29-1.893a9.522,9.522,0,0,1,1.206-1.359,1.634,1.634,0,0,1,1.023-.519.751.751,0,0,1,.5.322,1.922,1.922,0,0,1,.28,1.219q0,.534-.043,1.122t-.112,1.178q-.069.589-.112,1.121t-.041.953a12.374,12.374,0,0,0,.153,1.949,5.26,5.26,0,0,0,.6,1.767,3.539,3.539,0,0,0,1.234,1.29,3.816,3.816,0,0,0,2.047.491,4.4,4.4,0,0,0,2.145-.561,9.048,9.048,0,0,0,1.906-1.4,12.826,12.826,0,0,0,1.612-1.865c.282-.395.536-.774.777-1.144,0,.278,0,.558-.006.836q-.014,2.9-.028,5.552t-.014,4.963v4.051q0,3.505.07,6.491a30.724,30.724,0,0,0,.5,5.187,8.551,8.551,0,0,0,1.36,3.449,3.057,3.057,0,0,0,2.608,1.247,3.371,3.371,0,0,0,2.047-.658,5.454,5.454,0,0,0,1.529-1.809,9.69,9.69,0,0,0,.953-2.706,16.371,16.371,0,0,0,.322-3.323,23.024,23.024,0,0,0-.378-4.051,25.976,25.976,0,0,0-1.122-4.192,23.87,23.87,0,0,0-1.865-4,18.3,18.3,0,0,0-2.636-3.491,24.606,24.606,0,0,0,5.65-3.533,21.746,21.746,0,0,0,3.744-4.066,8.925,8.925,0,0,0,.49,2.243,5.964,5.964,0,0,0,1.01,1.795,4.537,4.537,0,0,0,1.528,1.191,4.633,4.633,0,0,0,2.047.435,4.293,4.293,0,0,0,1.935-.476,8.44,8.44,0,0,0,1.823-1.248,13.931,13.931,0,0,0,1.641-1.738q.771-.967,1.416-1.949t1.149-1.907l.089-.163a17.668,17.668,0,0,0,1.257,3.444,8.579,8.579,0,0,0,2.047,2.72,4.279,4.279,0,0,0,2.888,1.037,4.723,4.723,0,0,0,2.061-.462,8.115,8.115,0,0,0,1.823-1.206,11.825,11.825,0,0,0,1.584-1.682,21.552,21.552,0,0,0,1.318-1.893q.589-.953,1.052-1.837l.073-.141a17.907,17.907,0,0,0,1.331,3.717,8.585,8.585,0,0,0,2.047,2.72,4.279,4.279,0,0,0,2.888,1.038,4.719,4.719,0,0,0,2.061-.463,8.1,8.1,0,0,0,1.823-1.206,11.807,11.807,0,0,0,1.584-1.682,21.519,21.519,0,0,0,1.318-1.893q.589-.952,1.052-1.836t.771-1.528a1.3,1.3,0,0,0,.112-.449A1.119,1.119,0,0,0,420.858,274.968Zm-52.479-6.282q.014-.954.042-1.8t.042-1.71q.014-.868.042-1.991,0-.533.014-1.6t.056-2.453q.043-1.388.126-2.972t.224-3.168q.14-1.584.351-3.042a21.161,21.161,0,0,1,.518-2.58,6.853,6.853,0,0,1,.729-1.795,1.183,1.183,0,0,1,.982-.673,1.253,1.253,0,0,1,.939.434,3.357,3.357,0,0,1,.673,1.206,8.867,8.867,0,0,1,.393,1.865,21.373,21.373,0,0,1,.126,2.439,36.776,36.776,0,0,1-.393,5.356,43.808,43.808,0,0,1-1.094,5.215,45.387,45.387,0,0,1-1.668,4.949,47.489,47.489,0,0,1-2.117,4.556Q368.365,269.64,368.379,268.686Zm-83.966,28.769q0,1.346-.056,2.944t-.2,3.21q-.141,1.613-.421,3.127a15.164,15.164,0,0,1-.729,2.678,5.832,5.832,0,0,1-1.094,1.865,2,2,0,0,1-1.514.7,1.855,1.855,0,0,1-.6-.112,1.314,1.314,0,0,1-.589-.448,2.825,2.825,0,0,1-.449-.954,6.021,6.021,0,0,1-.182-1.654,19.261,19.261,0,0,1,.407-3.687,31.8,31.8,0,0,1,1.163-4.248,36.774,36.774,0,0,1,1.823-4.332,28,28,0,0,1,2.384-3.968q.056,1.261.056,2.467Zm9.225-27.367c.038-.149.093-.337.169-.561a5.372,5.372,0,0,1,.252-.631c.093-.2.182-.364.266-.5s.154-.21.211-.21.107.075.154.224a3.334,3.334,0,0,1,.112.532c.028.206.046.416.056.631s.014.388.014.519Zm19.866,7.627a6.178,6.178,0,0,1-.1-1.065,8.915,8.915,0,0,1,.154-1.64,5.657,5.657,0,0,1,.491-1.5,3.174,3.174,0,0,1,.869-1.094,2.017,2.017,0,0,1,1.29-.42,1.326,1.326,0,0,1,.982.434,1.766,1.766,0,0,1,.42,1.276,4.228,4.228,0,0,1-.28,1.5,5.713,5.713,0,0,1-.786,1.416,6.609,6.609,0,0,1-1.22,1.234,6.813,6.813,0,0,1-1.584.925Q313.6,278.275,313.5,277.715Zm14.665,0a6.178,6.178,0,0,1-.1-1.065,8.915,8.915,0,0,1,.154-1.64,5.656,5.656,0,0,1,.491-1.5,3.175,3.175,0,0,1,.869-1.094,2.017,2.017,0,0,1,1.29-.42,1.326,1.326,0,0,1,.982.434,1.766,1.766,0,0,1,.42,1.276,4.229,4.229,0,0,1-.28,1.5,5.715,5.715,0,0,1-.786,1.416,6.607,6.607,0,0,1-1.22,1.234,6.813,6.813,0,0,1-1.584.925Q328.267,278.275,328.17,277.715Zm42.327,13.88a23.806,23.806,0,0,1,1.612,3.547,22.034,22.034,0,0,1,.982,3.715,21.252,21.252,0,0,1,.322,3.589q0,.673-.112,1.753a12.46,12.46,0,0,1-.407,2.117,5.872,5.872,0,0,1-.827,1.8,1.614,1.614,0,0,1-1.374.757q-.925,0-1.416-1.247a13.451,13.451,0,0,1-.729-3.281,43.6,43.6,0,0,1-.266-4.584q-.028-2.552-.028-5.16,0-1.262.014-2.79t.014-3.295A16.227,16.227,0,0,1,370.5,291.595Zm22.628-20.329q-.14-1.514-.224-3.168t-.084-3.449q0-2.356.154-4.739t.42-4.571q.266-2.187.659-4.094a27.874,27.874,0,0,1,.869-3.309,9.542,9.542,0,0,1,1.023-2.215q.548-.813,1.136-.813.9,0,1.43,1.43a14.951,14.951,0,0,1,.533,4.739,26.65,26.65,0,0,1-.491,4.949,47.081,47.081,0,0,1-1.3,5.215q-.813,2.623-1.878,5.188T393.125,271.265Zm14.176.253q-.14-1.514-.224-3.169t-.084-3.449q0-2.356.154-4.739t.421-4.57q.266-2.187.659-4.094a27.713,27.713,0,0,1,.869-3.309,9.561,9.561,0,0,1,1.023-2.215q.547-.813,1.136-.813.9,0,1.43,1.43a14.953,14.953,0,0,1,.532,4.739,26.648,26.648,0,0,1-.491,4.949,47.289,47.289,0,0,1-1.3,5.215q-.814,2.623-1.878,5.187T407.3,271.519Z" transform="translate(-61.972 0)"/><path class="a" d="M502.13,283.536a2.538,2.538,0,0,0,2.552-2.552,2.552,2.552,0,1,0-5.1,0,2.537,2.537,0,0,0,2.552,2.552Zm-.673-3.239a.9.9,0,0,1,.673-.295,1.007,1.007,0,0,1,.981.982.894.894,0,0,1-.294.673.966.966,0,0,1-.687.28.957.957,0,0,1-.954-.953A.966.966,0,0,1,501.457,280.3Z" transform="translate(-183.231 -19.309)"/><path class="b" d="M202.667,279.824a1.064,1.064,0,0,0-1.388-.126h0c-.27.194-6.617,4.837-6.935,12.069-.209,4.755,2.242,9.421,7.272,13.877a11.966,11.966,0,0,1-.86,3.2,1.063,1.063,0,1,0,1.933.884,14.5,14.5,0,0,0,1.045-3.874c1.622-.834,5.82-3.431,6.857-8.4C211.662,292.319,209,286.386,202.667,279.824Zm5.842,17.183a10.239,10.239,0,0,1-4.523,6.219c.082-1.6.044-3.047,0-3.987a1.062,1.062,0,0,0-1.16-1h0a1.064,1.064,0,0,0-.963,1.116c.05.982.071,2.267.007,3.619-3.736-3.658-5.552-7.384-5.394-11.095.207-4.859,3.779-8.5,5.336-9.864C207.128,287.735,209.382,292.775,208.509,297.006Z" transform="translate(-17.802 -19.886)"/></g></svg>