<svg xmlns="http://www.w3.org/2000/svg" width="198" height="71.387" viewBox="0 0 198 71.387"><defs><style>.a{fill:#6da340;}.b{fill:#1a1818;}.c{fill:#fff;}</style></defs><g transform="translate(-161.484 -242.805)"><ellipse class="a" cx="21.236" cy="21.236" rx="21.236" ry="21.236" transform="translate(161.484 255.467) rotate(-5.655)"/><path class="b" d="M421.13,275.017a.979.979,0,0,0-.773-.337,1.062,1.062,0,0,0-.562.154,1.051,1.051,0,0,0-.393.435q-.365.758-1.025,2.008a20.863,20.863,0,0,1-1.531,2.457,11.785,11.785,0,0,1-1.91,2.092,3.31,3.31,0,0,1-2.163.884,3.362,3.362,0,0,1-2.838-2.036,18.471,18.471,0,0,1-1.882-5.6q1.573-2.865,2.95-5.883a61.436,61.436,0,0,0,2.388-6.052,49.059,49.059,0,0,0,1.6-6.024,29.948,29.948,0,0,0,.59-5.8,22.336,22.336,0,0,0-.281-3.848,9.21,9.21,0,0,0-.787-2.556,3.362,3.362,0,0,0-1.25-1.418,3.252,3.252,0,0,0-1.672-.435,2.864,2.864,0,0,0-2.107.955,8.7,8.7,0,0,0-1.643,2.583,22.548,22.548,0,0,0-1.236,3.792q-.52,2.163-.857,4.577t-.491,4.943q-.155,2.527-.155,4.887,0,1.629.1,3.735t.379,4.339c.068.542.15,1.079.24,1.613a.989.989,0,0,0-.621.534q-.365.758-1.025,2.008a20.8,20.8,0,0,1-1.531,2.457,11.8,11.8,0,0,1-1.91,2.092,3.312,3.312,0,0,1-2.163.885,3.362,3.362,0,0,1-2.838-2.036,18.471,18.471,0,0,1-1.882-5.6q1.573-2.865,2.95-5.884a61.5,61.5,0,0,0,2.388-6.052,49.052,49.052,0,0,0,1.6-6.024,29.94,29.94,0,0,0,.59-5.8,22.337,22.337,0,0,0-.281-3.848,9.189,9.189,0,0,0-.787-2.555,3.36,3.36,0,0,0-1.25-1.418,3.252,3.252,0,0,0-1.672-.435,2.866,2.866,0,0,0-2.107.955,8.707,8.707,0,0,0-1.643,2.583,22.586,22.586,0,0,0-1.236,3.792q-.52,2.163-.856,4.578t-.492,4.943q-.155,2.527-.155,4.886,0,1.63.1,3.735t.379,4.339c.081.643.179,1.28.29,1.913a1.012,1.012,0,0,0-.121.053,1.042,1.042,0,0,0-.393.435,35.915,35.915,0,0,1-1.77,3.159,19.767,19.767,0,0,1-1.784,2.43,8.969,8.969,0,0,1-1.728,1.573,2.949,2.949,0,0,1-1.629.562,3.225,3.225,0,0,1-1-.169,2.321,2.321,0,0,1-.983-.674,3.817,3.817,0,0,1-.759-1.418,8.013,8.013,0,0,1-.295-2.4q0-1.1.07-2.4t.169-2.471q.1-1.166.168-2.008c.046-.562.071-.9.071-1.011a1.1,1.1,0,0,0-.281-.744.9.9,0,0,0-.7-.323,1.046,1.046,0,0,0-.773.295,1.189,1.189,0,0,0-.351.688q-.309,2.416-.421,4.774a.27.27,0,0,0-.07.1.86.86,0,0,1-.042.1,17.45,17.45,0,0,1-1.5,2.654,18.73,18.73,0,0,1-2.275,2.724,23.628,23.628,0,0,1-3.034,2.542,21.909,21.909,0,0,1-3.778,2.135q0-.9.014-2.12t.014-2.556V275.3q1.545-2.78,2.908-5.645a53.069,53.069,0,0,0,2.374-5.869,45.067,45.067,0,0,0,1.6-6.206,36.5,36.5,0,0,0,.59-6.627,20.854,20.854,0,0,0-.225-3.118,9.794,9.794,0,0,0-.73-2.6,4.779,4.779,0,0,0-1.321-1.769,3.067,3.067,0,0,0-1.994-.66,2.913,2.913,0,0,0-2.458,1.362,10.9,10.9,0,0,0-1.531,3.974,45.371,45.371,0,0,0-.815,6.4q-.253,3.79-.337,8.621-.056,2.528-.084,5.35t-.056,5.743c0,.185,0,.368,0,.552a1.164,1.164,0,0,0-.165.262q-.309.731-.941,1.91a18.055,18.055,0,0,1-1.489,2.317,11.364,11.364,0,0,1-1.869,1.965,3.253,3.253,0,0,1-2.078.829,1.578,1.578,0,0,1-.956-.267,1.7,1.7,0,0,1-.562-.73,3.868,3.868,0,0,1-.267-1.081,11.443,11.443,0,0,1-.07-1.292c0-.355.013-.734.042-1.137s.055-.8.083-1.194.057-.762.085-1.109.042-.641.042-.884a4.708,4.708,0,0,0-.7-2.64,2.411,2.411,0,0,0-2.163-1.067,3.373,3.373,0,0,0-1.559.435,5.582,5.582,0,0,0-1.644,1.419q-.816,1.011-1.558,2.134t-1.419,2.261q-.675,1.137-1.264,2.247t-1.039,2.035q.084-.813.183-2.022t.21-2.429q.113-1.222.183-2.289t.071-1.573a6.846,6.846,0,0,0-.127-1.32,4.606,4.606,0,0,0-.394-1.18,2.309,2.309,0,0,0-.716-.856,1.832,1.832,0,0,0-1.1-.323,2.992,2.992,0,0,0-2.206,1.418,20.156,20.156,0,0,0-2.374,4.423c-.01.027-.015.053-.023.08q-.571,1.266-1.269,2.531a13.833,13.833,0,0,1-1.657,2.387,8.258,8.258,0,0,1-2.051,1.727,5.266,5.266,0,0,1-4.776.168,4.366,4.366,0,0,1-1.517-1.306A12,12,0,0,0,331.4,279.4a9.185,9.185,0,0,0,1.643-1.6,7.268,7.268,0,0,0,1.082-1.881,5.915,5.915,0,0,0,.393-2.163,3.945,3.945,0,0,0-.309-1.6,3.759,3.759,0,0,0-.815-1.194,3.67,3.67,0,0,0-1.138-.758,3.267,3.267,0,0,0-1.278-.267,4.076,4.076,0,0,0-2.009.506,4.865,4.865,0,0,0-1.573,1.4,6.662,6.662,0,0,0-1.011,2.107c-.073.25-.13.51-.18.775a1.071,1.071,0,0,0-.227.32q-.59,1.32-1.321,2.64A13.837,13.837,0,0,1,323,280.071a8.26,8.26,0,0,1-2.051,1.727,5.266,5.266,0,0,1-4.776.168,4.366,4.366,0,0,1-1.517-1.306,12,12,0,0,0,2.051-1.264,9.2,9.2,0,0,0,1.644-1.6,7.278,7.278,0,0,0,1.081-1.881,5.915,5.915,0,0,0,.393-2.163,3.943,3.943,0,0,0-.309-1.6,3.758,3.758,0,0,0-.815-1.194,3.67,3.67,0,0,0-1.138-.758,3.267,3.267,0,0,0-1.278-.267,4.075,4.075,0,0,0-2.009.506,4.865,4.865,0,0,0-1.573,1.4,6.662,6.662,0,0,0-1.011,2.107,8.142,8.142,0,0,0-.184.794,1,1,0,0,0-.2.245q-.478.926-1.194,2.162A18.259,18.259,0,0,1,308.5,279.5a10.713,10.713,0,0,1-1.966,1.9,3.769,3.769,0,0,1-2.276.787,2.832,2.832,0,0,1-.871-.155,2.387,2.387,0,0,1-.9-.547,3.035,3.035,0,0,1-.7-1.053,4.29,4.29,0,0,1-.281-1.671,12.534,12.534,0,0,1,.084-1.432q.085-.73.2-1.475t.2-1.446a11.362,11.362,0,0,0,.084-1.348,2.84,2.84,0,0,0-.843-2.3,3.733,3.733,0,0,0-2.444-.7q-.421,0-.885.014t-.941.014a10.513,10.513,0,0,0-.1-1.32,8,8,0,0,0-.323-1.446,3.415,3.415,0,0,0-.632-1.166,1.322,1.322,0,0,0-1.053-.478,1.605,1.605,0,0,0-1.124.576,6.7,6.7,0,0,0-1.011,1.362,8.714,8.714,0,0,0-.716,1.6,4.451,4.451,0,0,0-.267,1.292,1.5,1.5,0,0,0,1,1.545,3.033,3.033,0,0,0,.941.2q.506.028.983.028-.253,1.235-.421,1.825c-.088.307-.164.543-.229.713a1.215,1.215,0,0,0-.165.27,62.145,62.145,0,0,1-7.332,11.43q.028-2.022.07-3.834t.071-3.187q.028-1.376.056-2.2t.028-.857a1.189,1.189,0,0,0-.267-.758.9.9,0,0,0-.744-.337,1.08,1.08,0,0,0-.73.267,1.04,1.04,0,0,0-.365.66,9.547,9.547,0,0,1-.66,2.527,6.671,6.671,0,0,1-1.082,1.769,4.392,4.392,0,0,1-1.278,1.039,2.756,2.756,0,0,1-1.25.337,2.089,2.089,0,0,1-1.826-.829,3.671,3.671,0,0,1-.59-2.176,7.3,7.3,0,0,1,.59-3.076,6.618,6.618,0,0,1,1.461-2.092,5.651,5.651,0,0,1,1.882-1.193,5.318,5.318,0,0,1,1.854-.379,3.7,3.7,0,0,1,.969.112,3.043,3.043,0,0,1,.7.281,3.25,3.25,0,0,1,.478.323q.182.155.3.239a1.16,1.16,0,0,0,.759.309.978.978,0,0,0,.73-.323,1.044,1.044,0,0,0,.309-.744,1.093,1.093,0,0,0-.309-.758c-.019-.018-.122-.112-.309-.281a4.226,4.226,0,0,0-.8-.534,7.013,7.013,0,0,0-1.25-.506,5.436,5.436,0,0,0-1.6-.224,7.153,7.153,0,0,0-2.683.561,7.82,7.82,0,0,0-2.542,1.685,8.911,8.911,0,0,0-1.9,2.794,9.406,9.406,0,0,0-.744,3.862,6.355,6.355,0,0,0,.309,2.022,5.042,5.042,0,0,0,.871,1.614,3.873,3.873,0,0,0,1.362,1.067,4.115,4.115,0,0,0,1.784.379,4.917,4.917,0,0,0,2.318-.618,6.288,6.288,0,0,0,2.009-1.685q-.057,1.63-.07,3.566t-.042,3.9a23.181,23.181,0,0,0-2.177,2.809,34.087,34.087,0,0,0-1.9,3.23q-.871,1.684-1.587,3.468t-1.222,3.525a28.57,28.57,0,0,0-.773,3.384,19.076,19.076,0,0,0-.267,3.047,7,7,0,0,0,1.011,4.072,3.328,3.328,0,0,0,2.893,1.432,3.97,3.97,0,0,0,2.289-.66,5.613,5.613,0,0,0,1.658-1.825,11.289,11.289,0,0,0,1.124-2.752,26.617,26.617,0,0,0,.688-3.454q.253-1.868.351-3.932t.1-4.17q0-2.106-.028-3.876t-.028-3.538q3.483-4.354,5.759-7.807a43.513,43.513,0,0,0,3.511-6.261v0a1.91,1.91,0,0,0,.14-.337q.112-.308.267-.8t.324-1.151a14.264,14.264,0,0,0,.281-1.418q.533-.028,1-.028h.857a1.456,1.456,0,0,1,1.054.267,1.17,1.17,0,0,1,.239.8,13.44,13.44,0,0,1-.281,2.654,14.046,14.046,0,0,0-.281,2.795,6.724,6.724,0,0,0,.394,2.373,5.322,5.322,0,0,0,1.053,1.769,4.446,4.446,0,0,0,1.559,1.1,4.863,4.863,0,0,0,1.91.379,5.447,5.447,0,0,0,2.992-.871,11.275,11.275,0,0,0,2.458-2.134,18.572,18.572,0,0,0,1.846-2.54c.051.229.11.457.177.686a7.808,7.808,0,0,0,1.292,2.569,6.549,6.549,0,0,0,5.422,2.569,7.579,7.579,0,0,0,5.183-2.219,16.112,16.112,0,0,0,2.664-3.429c.041.169.081.339.131.508a7.809,7.809,0,0,0,1.292,2.569,6.55,6.55,0,0,0,5.422,2.569,7.579,7.579,0,0,0,5.183-2.219,20.311,20.311,0,0,0,4.2-6.369c.017-.032.042-.056.057-.09a21.94,21.94,0,0,1,1.657-3.412q.646-.969.9-1.053a1.293,1.293,0,0,1,.224.786q.056.647.056,1.348,0,.535-.056,1.32t-.14,1.7q-.084.912-.168,1.839t-.168,1.727q-.085.8-.14,1.376t-.056.773a1.879,1.879,0,0,0,.492,1.39,1.766,1.766,0,0,0,1.307.491,1.949,1.949,0,0,0,1.152-.407,4.2,4.2,0,0,0,1.123-1.587q.28-.617.772-1.558t1.068-1.98q.574-1.038,1.236-2.092t1.292-1.9a9.537,9.537,0,0,1,1.208-1.362,1.637,1.637,0,0,1,1.025-.52.752.752,0,0,1,.506.323,1.924,1.924,0,0,1,.281,1.221q0,.535-.043,1.124t-.112,1.18q-.069.59-.112,1.123t-.041.955a12.39,12.39,0,0,0,.154,1.952,5.269,5.269,0,0,0,.6,1.77,3.545,3.545,0,0,0,1.237,1.292,3.824,3.824,0,0,0,2.05.491,4.414,4.414,0,0,0,2.149-.562,9.064,9.064,0,0,0,1.91-1.4,12.84,12.84,0,0,0,1.615-1.868c.282-.4.537-.775.779-1.146,0,.278,0,.559-.006.837q-.014,2.906-.028,5.56t-.014,4.971v4.058q0,3.511.07,6.5a30.762,30.762,0,0,0,.506,5.2,8.562,8.562,0,0,0,1.362,3.454,3.063,3.063,0,0,0,2.613,1.249,3.378,3.378,0,0,0,2.05-.659,5.465,5.465,0,0,0,1.531-1.812,9.7,9.7,0,0,0,.955-2.71,16.39,16.39,0,0,0,.323-3.328,23.053,23.053,0,0,0-.379-4.058,26.016,26.016,0,0,0-1.124-4.2,23.9,23.9,0,0,0-1.868-4,18.325,18.325,0,0,0-2.641-3.5,24.655,24.655,0,0,0,5.661-3.538,21.786,21.786,0,0,0,3.751-4.072,8.934,8.934,0,0,0,.491,2.247,5.972,5.972,0,0,0,1.012,1.8,4.544,4.544,0,0,0,1.531,1.193,4.643,4.643,0,0,0,2.05.436,4.3,4.3,0,0,0,1.938-.477,8.454,8.454,0,0,0,1.826-1.25,13.956,13.956,0,0,0,1.644-1.741q.772-.969,1.419-1.952t1.151-1.91l.089-.163a17.689,17.689,0,0,0,1.26,3.449,8.593,8.593,0,0,0,2.051,2.724,4.288,4.288,0,0,0,2.893,1.039,4.733,4.733,0,0,0,2.065-.463,8.13,8.13,0,0,0,1.826-1.208,11.848,11.848,0,0,0,1.587-1.685,21.594,21.594,0,0,0,1.32-1.9q.59-.954,1.054-1.84l.073-.141a17.934,17.934,0,0,0,1.333,3.723,8.6,8.6,0,0,0,2.051,2.724,4.288,4.288,0,0,0,2.893,1.039,4.729,4.729,0,0,0,2.065-.463,8.11,8.11,0,0,0,1.826-1.207,11.826,11.826,0,0,0,1.587-1.685,21.549,21.549,0,0,0,1.32-1.9q.59-.954,1.054-1.839t.772-1.53a1.3,1.3,0,0,0,.112-.45A1.121,1.121,0,0,0,421.13,275.017Zm-52.577-6.291q.014-.955.042-1.8t.042-1.713q.014-.87.042-1.994,0-.533.014-1.6t.056-2.457q.043-1.39.126-2.977t.225-3.173q.14-1.586.352-3.047a21.183,21.183,0,0,1,.519-2.584,6.862,6.862,0,0,1,.73-1.8,1.186,1.186,0,0,1,.983-.674,1.255,1.255,0,0,1,.941.435,3.362,3.362,0,0,1,.674,1.208,8.877,8.877,0,0,1,.393,1.868,21.392,21.392,0,0,1,.127,2.443,36.821,36.821,0,0,1-.393,5.364,43.86,43.86,0,0,1-1.1,5.223,45.443,45.443,0,0,1-1.671,4.957,47.551,47.551,0,0,1-2.121,4.563Q368.538,269.681,368.552,268.726ZM284.43,297.539q0,1.348-.056,2.949t-.2,3.215q-.141,1.615-.422,3.131a15.179,15.179,0,0,1-.73,2.682,5.839,5.839,0,0,1-1.1,1.868,2,2,0,0,1-1.517.7,1.859,1.859,0,0,1-.6-.112,1.317,1.317,0,0,1-.59-.449,2.828,2.828,0,0,1-.45-.956,6.028,6.028,0,0,1-.183-1.657,19.286,19.286,0,0,1,.408-3.693,31.84,31.84,0,0,1,1.166-4.254,36.825,36.825,0,0,1,1.826-4.339,28.049,28.049,0,0,1,2.388-3.974q.056,1.263.056,2.471Zm9.242-27.409c.038-.15.094-.337.169-.561a5.373,5.373,0,0,1,.253-.632c.093-.2.183-.365.267-.505s.155-.21.211-.21.107.075.154.225a3.338,3.338,0,0,1,.112.533c.028.206.046.417.056.632s.014.389.014.519Zm19.9,7.639a6.185,6.185,0,0,1-.1-1.067,8.924,8.924,0,0,1,.155-1.643,5.665,5.665,0,0,1,.491-1.5,3.18,3.18,0,0,1,.871-1.1,2.022,2.022,0,0,1,1.292-.421,1.329,1.329,0,0,1,.983.435,1.769,1.769,0,0,1,.421,1.278,4.233,4.233,0,0,1-.281,1.5,5.721,5.721,0,0,1-.787,1.418,6.621,6.621,0,0,1-1.222,1.236,6.827,6.827,0,0,1-1.587.926Q313.673,278.33,313.575,277.768Zm14.692,0a6.185,6.185,0,0,1-.1-1.067,8.927,8.927,0,0,1,.155-1.643,5.664,5.664,0,0,1,.492-1.5,3.18,3.18,0,0,1,.871-1.1,2.021,2.021,0,0,1,1.292-.421,1.329,1.329,0,0,1,.983.435,1.769,1.769,0,0,1,.421,1.278,4.233,4.233,0,0,1-.281,1.5,5.724,5.724,0,0,1-.787,1.418,6.619,6.619,0,0,1-1.222,1.236,6.826,6.826,0,0,1-1.587.926Q328.365,278.33,328.268,277.768Zm42.406,13.9a23.836,23.836,0,0,1,1.615,3.553,22.065,22.065,0,0,1,.983,3.721,21.278,21.278,0,0,1,.323,3.595q0,.674-.112,1.755a12.479,12.479,0,0,1-.408,2.12,5.882,5.882,0,0,1-.829,1.8,1.617,1.617,0,0,1-1.376.758q-.927,0-1.418-1.249a13.467,13.467,0,0,1-.731-3.286,43.647,43.647,0,0,1-.267-4.591q-.028-2.556-.028-5.168,0-1.263.014-2.794t.014-3.3A16.253,16.253,0,0,1,370.674,291.669Zm22.67-20.36q-.14-1.517-.225-3.173t-.084-3.454q0-2.36.155-4.746t.421-4.578q.266-2.19.66-4.1a27.906,27.906,0,0,1,.871-3.314,9.553,9.553,0,0,1,1.025-2.219q.549-.815,1.138-.814.9,0,1.433,1.432a14.969,14.969,0,0,1,.534,4.746,26.682,26.682,0,0,1-.492,4.957,47.14,47.14,0,0,1-1.306,5.223q-.815,2.627-1.882,5.2T393.344,271.309Zm14.2.254q-.14-1.517-.225-3.174t-.084-3.454q0-2.36.155-4.746t.421-4.577q.266-2.19.66-4.1a27.75,27.75,0,0,1,.871-3.314,9.575,9.575,0,0,1,1.025-2.219q.548-.814,1.138-.814.9,0,1.433,1.432a14.971,14.971,0,0,1,.533,4.746,26.68,26.68,0,0,1-.491,4.957,47.352,47.352,0,0,1-1.306,5.223q-.815,2.627-1.882,5.2T407.547,271.563Z" transform="translate(-61.941 0)"/><path class="b" d="M502.132,283.539a2.539,2.539,0,0,0,2.553-2.553,2.529,2.529,0,0,0-.744-1.809,2.525,2.525,0,0,0-1.809-.743,2.536,2.536,0,0,0-2.554,2.553,2.539,2.539,0,0,0,2.554,2.553Zm-.674-3.241a.9.9,0,0,1,.674-.295,1.007,1.007,0,0,1,.982.982.894.894,0,0,1-.295.673.966.966,0,0,1-.687.281.958.958,0,0,1-.954-.954A.966.966,0,0,1,501.458,280.3Z" transform="translate(-182.99 -19.282)"/><path class="c" d="M202.672,279.824a1.065,1.065,0,0,0-1.389-.126h0c-.27.194-6.621,4.839-6.939,12.076-.209,4.758,2.243,9.427,7.276,13.885a11.974,11.974,0,0,1-.861,3.205,1.064,1.064,0,1,0,1.935.885,14.507,14.507,0,0,0,1.046-3.876c1.623-.835,5.823-3.433,6.861-8.4C211.673,292.327,209.006,286.39,202.672,279.824Zm5.845,17.193a10.245,10.245,0,0,1-4.525,6.223c.082-1.6.044-3.048,0-3.99a1.063,1.063,0,0,0-1.16-1h0a1.065,1.065,0,0,0-.964,1.117c.05.982.071,2.269.007,3.621-3.738-3.661-5.555-7.388-5.4-11.1.207-4.862,3.781-8.505,5.339-9.87C207.135,287.739,209.391,292.783,208.517,297.017Z" transform="translate(-17.793 -19.848)"/></g></svg>